<?xml version="1.0" encoding="utf-8"?>
<!-- Generator: Adobe Illustrator 23.0.5, SVG Export Plug-In . SVG Version: 6.00 Build 0)  -->
<svg version="1.1" id="Layer_1" xmlns="http://www.w3.org/2000/svg" xmlns:xlink="http://www.w3.org/1999/xlink" x="0px" y="0px"
	 viewBox="0 0 853.8 670.6" style="enable-background:new 0 0 853.8 670.6;" xml:space="preserve">
<style type="text/css">
	.st0{opacity:0.98;}
	.st1{fill-rule:evenodd;clip-rule:evenodd;fill:#FFFFFF;}
	.st2{fill-rule:evenodd;clip-rule:evenodd;fill:#FAA41A;}
	.st3{enable-background:new    ;}
	.st4{fill:#FFFFFF;}
	.st5{font-family:'Cornerstone';}
	.st6{font-size:183.8395px;}
	.st7{letter-spacing:-4.8;}
	.st8{fill:#FFBA00;}
</style>
<title>burgerlogo</title>
<g class="st0">
	<path class="st1" d="M790.4,513.8c-2.6,12.1-8.2,23.4-16.3,32.7c0,8.8,0,17.6-0.6,26.4c-1.2,19.3-4.7,38.5-14.2,55.5
		c-18.9,33.8-53.2,45.6-90,45.6H182.2c-36.9,0-71.1-11.8-90-45.6c-14-25.2-14.8-53.8-14.8-81.9c-8.1-9.4-13.7-20.6-16.2-32.7H790.4z
		 M80.3,304.7v-24.2c0-55.5,16.2-107.2,50.4-151.1C290.2-76.3,771.3-24.3,771.3,280.5v15.6c2.9,2.1,5.8,4.3,8.7,6.5
		c10.4,7.8,18.5,18.1,23.7,30H60.4C65.2,322.4,72.4,312.9,80.3,304.7z"/>
	<path class="st2" d="M675.7,641.8c44.5-4.8,56.5-37,59.8-72l1.4-23.8H127.4c0,42.1,0,95.8,73,95.8H675.7"/>
	<path class="st2" d="M118.2,280.5v22.9h627.7v-22.9C745.9-42.7,118.2-42.7,118.2,280.5"/>
	<text transform="matrix(0.63 0 0 1 8.1216 489.8656)" class="st3"><tspan x="0" y="0" class="st4 st5 st6 st7">YUM</tspan><tspan x="366.6" y="0" class="st8 st5 st6 st7">MY BURGER</tspan></text>
	<path class="st1" d="M567,111.4c-3.4-0.4-6.8,5.6-7.6,13.4c-0.8,7.8,1.3,14.4,4.7,14.8c3.4,0.4,6.8-5.6,7.6-13.4
		S570.4,111.8,567,111.4 M467.6,101.4c-3.4-0.4-6.8,5.6-7.6,13.4c-0.8,7.8,1.3,14.4,4.7,14.8c3.4,0.4,6.8-5.6,7.6-13.4
		C473,108.4,470.9,101.7,467.6,101.4L467.6,101.4z M514.5,105.5c-3.4-0.4-6.8,5.6-7.6,13.4s1.3,14.4,4.7,14.8
		c3.4,0.4,6.8-5.6,7.6-13.4S517.8,105.9,514.5,105.5z M492.1,214.9c-3.4-0.4-6.8,5.6-7.6,13.4c-0.8,7.8,1.3,14.4,4.7,14.8
		c3.4,0.4,6.8-5.6,7.6-13.4C497.5,221.9,495.4,215.3,492.1,214.9L492.1,214.9z M439.5,209c-3.4-0.4-6.8,5.6-7.6,13.4
		c-0.8,7.8,1.3,14.4,4.7,14.8c3.4,0.4,6.8-5.6,7.6-13.4C445,216,442.9,209.4,439.5,209L439.5,209z M360.3,214.9
		c-3.4-0.4-6.8,5.6-7.6,13.4c-0.8,7.8,1.3,14.4,4.7,14.8s6.8-5.6,7.6-13.4C365.8,221.9,363.7,215.3,360.3,214.9L360.3,214.9z
		 M307.8,209c-3.4-0.4-6.8,5.6-7.6,13.4c-0.8,7.8,1.3,14.4,4.7,14.8c3.4,0.4,6.8-5.6,7.6-13.4C313.3,216,311.2,209.3,307.8,209
		L307.8,209z M489.1,148.5c-3.3,0.7-4.8,7.5-3.3,15.1c1.5,7.7,5.4,13.3,8.8,12.6c3.3-0.7,4.8-7.5,3.3-15.1S492.5,147.7,489.1,148.5z
		 M437.3,159.4c-3.3,0.7-4.8,7.5-3.3,15.1s5.4,13.3,8.8,12.6c3.3-0.7,4.8-7.5,3.3-15.2C444.6,164.3,440.7,158.7,437.3,159.4
		L437.3,159.4z M576.4,199.7c-3.3,0.7-4.8,7.5-3.3,15.2c1.5,7.7,5.4,13.3,8.8,12.6c3.3-0.7,4.8-7.5,3.3-15.2
		C583.6,204.6,579.7,199,576.4,199.7z M524.6,210.6c-3.3,0.7-4.8,7.5-3.3,15.2c1.5,7.7,5.4,13.3,8.8,12.6c3.3-0.7,4.8-7.5,3.3-15.2
		C531.8,215.5,527.9,209.9,524.6,210.6L524.6,210.6z M366.2,112.2c-3.4,0.5-5.3,7.1-4.3,14.9c1,7.7,4.5,13.6,7.9,13.2
		s5.3-7.1,4.3-14.9S369.6,111.8,366.2,112.2L366.2,112.2z M313.8,119.5c-3.4,0.5-5.3,7.1-4.3,14.9c1,7.7,4.5,13.6,7.9,13.2
		c3.4-0.5,5.3-7.1,4.3-14.9S317.2,119,313.8,119.5L313.8,119.5z M395.6,172c-3.4,0-6.2,6.3-6.2,14.1s2.8,14.2,6.2,14.2
		s6.2-6.3,6.2-14.2S399,172,395.6,172L395.6,172z M342.8,172c-3.4,0-6.2,6.3-6.2,14.1s2.8,14.2,6.2,14.2c3.4,0,6.2-6.3,6.2-14.2
		S346.2,172,342.8,172L342.8,172z M600.4,162c-3.3-0.9-7.5,4.4-9.5,12c-2,7.5-0.9,14.4,2.4,15.3s7.6-4.4,9.5-12
		C604.8,169.9,603.7,163,600.4,162L600.4,162z M549.4,147.7c-3.3-0.9-7.6,4.4-9.5,12c-2,7.5-0.9,14.4,2.4,15.3
		c3.3,0.9,7.6-4.4,9.5-12C553.8,155.5,552.7,148.6,549.4,147.7z M299.4,151.1c-3.4,0-6.2,6.3-6.2,14.1c0,7.8,2.7,14.2,6.2,14.2
		c3.4,0,6.2-6.3,6.2-14.2C305.6,157.4,302.9,151.1,299.4,151.1L299.4,151.1z M246.6,151.1c-3.4,0-6.2,6.3-6.2,14.1
		c0,7.8,2.8,14.2,6.2,14.2s6.2-6.3,6.2-14.2C252.7,157.4,250,151.1,246.6,151.1L246.6,151.1z M415,95.5c-3.4-0.4-6.8,5.6-7.6,13.4
		s1.3,14.4,4.7,14.8c3.4,0.4,6.8-5.6,7.6-13.4S418.4,95.8,415,95.5z"/>
</g>
</svg>
